<svg width="362" height="204" viewBox="0 0 362 204" fill="none" xmlns="http://www.w3.org/2000/svg">
<foreignObject x="0" y="0" width="0" height="0"><div xmlns="http://www.w3.org/1999/xhtml" style="backdrop-filter:blur(50px);clip-path:url(#bgblur_0_5825_3337_clip_path);height:100%;width:100%"></div></foreignObject><path data-figma-bg-blur-radius="100" d="M132.716 0C138.02 2.32191e-05 143.107 2.10699 146.857 5.85742L155.143 14.1426C158.893 17.893 163.98 20 169.284 20H192.716C198.02 20 203.107 17.893 206.857 14.1426L215.143 5.85742C218.893 2.10699 223.98 2.43321e-05 229.284 0H342C353.046 2.25505e-07 362 8.95431 362 20V184C362 195.046 353.046 204 342 204H229.284C223.98 204 218.893 201.893 215.143 198.143L206.857 189.857C203.107 186.107 198.02 184 192.716 184H169.284C163.98 184 158.893 186.107 155.143 189.857L146.857 198.143C143.107 201.893 138.02 204 132.716 204H20C8.95431 204 1.77171e-07 195.046 0 184V20C0 8.95431 8.95431 2.25505e-07 20 0H132.716ZM181 82C169.954 82 161 90.9543 161 102C161 113.046 169.954 122 181 122C192.046 122 201 113.046 201 102C201 90.9543 192.046 82 181 82Z" fill="#1A1A1A" fill-opacity="0.5"/>
<defs>
<clipPath id="bgblur_0_5825_3337_clip_path" transform="translate(0 0)"><path d="M132.716 0C138.02 2.32191e-05 143.107 2.10699 146.857 5.85742L155.143 14.1426C158.893 17.893 163.98 20 169.284 20H192.716C198.02 20 203.107 17.893 206.857 14.1426L215.143 5.85742C218.893 2.10699 223.98 2.43321e-05 229.284 0H342C353.046 2.25505e-07 362 8.95431 362 20V184C362 195.046 353.046 204 342 204H229.284C223.98 204 218.893 201.893 215.143 198.143L206.857 189.857C203.107 186.107 198.02 184 192.716 184H169.284C163.98 184 158.893 186.107 155.143 189.857L146.857 198.143C143.107 201.893 138.02 204 132.716 204H20C8.95431 204 1.77171e-07 195.046 0 184V20C0 8.95431 8.95431 2.25505e-07 20 0H132.716ZM181 82C169.954 82 161 90.9543 161 102C161 113.046 169.954 122 181 122C192.046 122 201 113.046 201 102C201 90.9543 192.046 82 181 82Z"/>
</clipPath></defs>
</svg>
