<svg width="25" height="25" viewBox="0 0 25 25" fill="none" xmlns="http://www.w3.org/2000/svg">
<path d="M3.125 5.32592C3.125 4.75022 3.125 4.46236 3.16968 4.22255C3.36775 3.15941 4.19339 2.32777 5.24885 2.12826C5.48693 2.08325 5.7727 2.08325 6.34425 2.08325H18.6557C19.2273 2.08325 19.5131 2.08325 19.7512 2.12826C20.8066 2.32777 21.6322 3.15941 21.8303 4.22255C21.875 4.46236 21.875 4.75022 21.875 5.32592C21.875 5.89075 21.875 6.17316 21.8422 6.43504C21.6988 7.57848 21.0949 8.61222 20.1722 9.29375C19.9609 9.44983 19.7158 9.58699 19.2256 9.86129L16.547 11.3602C14.5688 12.4672 13.5797 13.0208 12.5 13.0208C11.4203 13.0208 10.4312 12.4672 8.45298 11.3602L5.77435 9.86129C5.28417 9.58699 5.03908 9.44983 4.82776 9.29375C3.90505 8.61222 3.30119 7.57848 3.15783 6.43504C3.125 6.17316 3.125 5.89075 3.125 5.32592Z" stroke="white" stroke-width="1.5" stroke-linecap="round"/>
<path d="M13.3098 14.2187L14.1347 15.8822C14.2472 16.1137 14.5472 16.3358 14.8003 16.3784L16.2954 16.6288C17.2516 16.7895 17.4766 17.4889 16.7876 18.1789L15.6252 19.3508C15.4283 19.5493 15.3205 19.9321 15.3815 20.2062L15.7143 21.657C15.9767 22.8053 15.3721 23.2495 14.3644 22.6494L12.963 21.8129C12.7099 21.6617 12.2928 21.6617 12.035 21.8129L10.6336 22.6494C9.63055 23.2495 9.02124 22.8006 9.28371 21.657L9.61649 20.2062C9.67742 19.9321 9.56962 19.5493 9.37276 19.3508L8.21039 18.1789C7.52609 17.4889 7.74638 16.7895 8.70253 16.6288L10.1977 16.3784C10.4461 16.3358 10.7461 16.1137 10.8585 15.8822L11.6834 14.2187C12.1334 13.3161 12.8646 13.3161 13.3098 14.2187Z" stroke="#CCFF00" stroke-width="1.5" stroke-linecap="round" stroke-linejoin="round"/>
<path d="M8.33301 5.20825V6.24992M12.4997 5.20825V8.33325M16.6663 5.20825V6.24992" stroke="#CCFF00" stroke-width="1.5" stroke-linecap="round"/>
</svg>
