<svg width="25" height="25" viewBox="0 0 25 25" fill="none" xmlns="http://www.w3.org/2000/svg">
<path d="M13.034 11.0833C13.034 10.8071 12.8101 10.5833 12.534 10.5833C12.2578 10.5833 12.034 10.8071 12.034 11.0833L12.534 11.0833L13.034 11.0833ZM12.034 18.0832C12.034 18.3593 12.2578 18.5832 12.534 18.5832C12.8101 18.5832 13.034 18.3593 13.034 18.0832H12.534H12.034ZM13.9064 12.8961C14.0793 13.1115 14.394 13.146 14.6093 12.9732C14.8247 12.8004 14.8592 12.4857 14.6864 12.2703L14.2964 12.5832L13.9064 12.8961ZM11.0988 16.3629C10.8881 16.1843 10.5726 16.2103 10.394 16.421C10.2155 16.6316 10.2414 16.9471 10.4521 17.1257L10.7754 16.7443L11.0988 16.3629ZM12.534 14.4826V13.9826C11.829 13.9826 11.4417 13.8756 11.2426 13.7485C11.0899 13.651 11.0146 13.5232 11.0146 13.2727H10.5146H10.0146C10.0146 13.8018 10.2148 14.2788 10.7046 14.5914C11.148 14.8744 11.7704 14.9826 12.534 14.9826V14.4826ZM10.5146 13.2727H11.0146C11.0146 13.0912 11.1193 12.8754 11.3926 12.6844C11.6642 12.4945 12.0662 12.3612 12.534 12.3612V11.8612V11.3612C11.8865 11.3612 11.2788 11.5438 10.8196 11.8648C10.3621 12.1846 10.0146 12.6746 10.0146 13.2727H10.5146ZM14.7369 15.8941H14.2369C14.2369 16.1968 14.1066 16.3941 13.8444 16.5433C13.5521 16.7097 13.1001 16.8056 12.534 16.8056V17.3056V17.8056C13.1845 17.8056 13.8339 17.6999 14.3389 17.4125C14.8741 17.108 15.2369 16.5996 15.2369 15.8941H14.7369ZM12.534 14.4826V14.9826C13.2427 14.9826 13.6776 15.0837 13.9233 15.2356C14.1203 15.3573 14.2369 15.5348 14.2369 15.8941H14.7369H15.2369C15.2369 15.2452 14.9863 14.7169 14.449 14.3849C13.9604 14.083 13.2938 13.9826 12.534 13.9826V14.4826ZM12.534 11.8612L13.034 11.8612L13.034 11.0833L12.534 11.0833L12.034 11.0833L12.034 11.8612L12.534 11.8612ZM12.534 17.3056H12.034V18.0832H12.534H13.034V17.3056H12.534ZM12.534 11.8612V12.3612C13.1791 12.3612 13.678 12.6114 13.9064 12.8961L14.2964 12.5832L14.6864 12.2703C14.2234 11.6933 13.4028 11.3612 12.534 11.3612V11.8612ZM12.534 17.3056V16.8056C11.9069 16.8056 11.3918 16.6114 11.0988 16.3629L10.7754 16.7443L10.4521 17.1257C10.9632 17.5591 11.7243 17.8056 12.534 17.8056V17.3056Z" fill="#CCFF00"/>
<path d="M7.61853 4.5261C7.40077 4.22582 7.08511 3.81823 7.73715 3.72529C8.40735 3.62975 9.10327 4.06438 9.78446 4.05545C10.4007 4.04736 10.7147 3.78843 11.0515 3.41872C11.4062 3.02942 11.9554 2.08325 12.6254 2.08325C13.2955 2.08325 13.8447 3.02942 14.1994 3.41872C14.5362 3.78843 14.8502 4.04736 15.4664 4.05545C16.1476 4.06438 16.8435 3.62975 17.5137 3.72529C18.1658 3.81823 17.8501 4.22582 17.6323 4.5261L16.6477 5.88386C16.2265 6.46468 16.0159 6.75509 15.5751 6.91915C15.1344 7.08321 14.5648 7.08321 13.4258 7.08321H11.8251C10.686 7.08321 10.1165 7.08321 9.67574 6.91915C9.23501 6.75509 9.0244 6.46468 8.60319 5.88386L7.61853 4.5261Z" stroke="#CCFF00"/>
<path d="M22.0646 16.9186C21.3717 12.9698 19.215 10.0294 17.3401 8.30224C16.7945 7.79967 16.5218 7.54838 15.9192 7.31582C15.3166 7.08325 14.7986 7.08325 13.7627 7.08325H11.4873C10.4514 7.08325 9.93344 7.08325 9.33084 7.31582C8.72825 7.54838 8.45546 7.79967 7.90988 8.30224C6.03497 10.0294 3.87825 12.9698 3.18545 16.9186C2.66998 19.8566 5.5309 22.0831 8.72823 22.0831H16.5218C19.7191 22.0831 22.58 19.8566 22.0646 16.9186Z" stroke="white" stroke-linecap="round"/>
</svg>
